<mxfile host="app.diagrams.net" modified="2022-02-13T13:59:22.022Z" agent="5.0 (Windows)" etag="CudEknltSlF1u7gPKteC" version="16.2.2" type="github">
  <diagram id="7XtfOpuD7Q2xYhAB9W4s" name="第 1 页">
    <mxGraphModel dx="782" dy="540" grid="1" gridSize="10" guides="1" tooltips="1" connect="1" arrows="1" fold="1" page="1" pageScale="1" pageWidth="827" pageHeight="1169" math="0" shadow="0">
      <root>
        <mxCell id="0" />
        <mxCell id="1" parent="0" />
        <mxCell id="jSd13r3pANXuDsG4-nZU-106" value="" style="rounded=1;whiteSpace=wrap;html=1;strokeWidth=3;fillColor=none;dashed=1;opacity=10;" parent="1" vertex="1">
          <mxGeometry x="149" y="178" width="507.5" height="363" as="geometry" />
        </mxCell>
        <mxCell id="jSd13r3pANXuDsG4-nZU-1" value="" style="rounded=1;whiteSpace=wrap;html=1;strokeWidth=3;" parent="1" vertex="1">
          <mxGeometry x="155" y="110" width="525" height="380" as="geometry" />
        </mxCell>
        <mxCell id="jSd13r3pANXuDsG4-nZU-8" value="" style="html=1;shadow=0;dashed=0;align=center;verticalAlign=middle;shape=mxgraph.arrows2.arrow;dy=0.64;dx=16.29;notch=0;" parent="1" vertex="1">
          <mxGeometry x="471" y="173" width="30" height="10" as="geometry" />
        </mxCell>
        <mxCell id="jSd13r3pANXuDsG4-nZU-10" value="" style="verticalLabelPosition=bottom;verticalAlign=top;html=1;shape=mxgraph.basic.x" parent="1" vertex="1">
          <mxGeometry x="298" y="170.5" width="16" height="15" as="geometry" />
        </mxCell>
        <mxCell id="jSd13r3pANXuDsG4-nZU-54" value="" style="rounded=0;whiteSpace=wrap;html=1;glass=0;sketch=0;shadow=0;fillColor=#e1eaf2;strokeWidth=2;" parent="1" vertex="1">
          <mxGeometry x="518" y="157" width="116" height="40" as="geometry" />
        </mxCell>
        <mxCell id="jSd13r3pANXuDsG4-nZU-79" value="" style="verticalLabelPosition=bottom;verticalAlign=top;html=1;shape=mxgraph.basic.x" parent="1" vertex="1">
          <mxGeometry x="277" y="345.5" width="16" height="15" as="geometry" />
        </mxCell>
        <mxCell id="jSd13r3pANXuDsG4-nZU-69" value="" style="rounded=0;whiteSpace=wrap;html=1;glass=0;sketch=0;shadow=0;fillColor=#e1eaf2;strokeWidth=2;rotation=90;" parent="1" vertex="1">
          <mxGeometry x="178" y="333" width="116" height="40" as="geometry" />
        </mxCell>
        <mxCell id="jSd13r3pANXuDsG4-nZU-80" value="" style="group" parent="1" vertex="1" connectable="0">
          <mxGeometry x="188" y="156" width="90" height="42" as="geometry" />
        </mxCell>
        <mxCell id="jSd13r3pANXuDsG4-nZU-2" value="" style="rounded=0;whiteSpace=wrap;html=1;glass=0;sketch=0;shadow=0;fillColor=#e1eaf2;strokeWidth=2;" parent="jSd13r3pANXuDsG4-nZU-80" vertex="1">
          <mxGeometry y="2" width="90" height="40" as="geometry" />
        </mxCell>
        <mxCell id="jSd13r3pANXuDsG4-nZU-37" value="&lt;font style=&quot;font-size: 16px&quot; face=&quot;Helvetica&quot;&gt;K&lt;sup&gt;&#39;&lt;/sup&gt;×(HW)&lt;/font&gt;" style="text;html=1;strokeColor=none;fillColor=none;align=center;verticalAlign=middle;whiteSpace=wrap;rounded=0;shadow=0;glass=0;sketch=0;fillStyle=cross-hatch;opacity=30;" parent="jSd13r3pANXuDsG4-nZU-80" vertex="1">
          <mxGeometry x="10" y="5" width="70" height="30" as="geometry" />
        </mxCell>
        <mxCell id="jSd13r3pANXuDsG4-nZU-82" value="" style="rounded=0;whiteSpace=wrap;html=1;glass=0;sketch=0;shadow=0;fillColor=#f6e5db;strokeWidth=2;" parent="1" vertex="1">
          <mxGeometry x="319" y="334" width="90" height="40" as="geometry" />
        </mxCell>
        <mxCell id="jSd13r3pANXuDsG4-nZU-91" value="&lt;font style=&quot;font-size: 16px&quot; face=&quot;Helvetica&quot;&gt;K&lt;sup&gt;&#39;&lt;/sup&gt;×(HW)&lt;/font&gt;" style="text;html=1;strokeColor=none;fillColor=none;align=center;verticalAlign=middle;whiteSpace=wrap;rounded=0;shadow=0;glass=0;sketch=0;fillStyle=cross-hatch;opacity=30;" parent="1" vertex="1">
          <mxGeometry x="329" y="338" width="70" height="30" as="geometry" />
        </mxCell>
        <mxCell id="jSd13r3pANXuDsG4-nZU-93" value="" style="group" parent="1" vertex="1" connectable="0">
          <mxGeometry x="330" y="168" width="196" height="122" as="geometry" />
        </mxCell>
        <mxCell id="jSd13r3pANXuDsG4-nZU-4" value="" style="rounded=0;whiteSpace=wrap;html=1;strokeWidth=2;fillColor=#E1EAF2;" parent="jSd13r3pANXuDsG4-nZU-93" vertex="1">
          <mxGeometry x="4" y="-20" width="120" height="60" as="geometry" />
        </mxCell>
        <mxCell id="jSd13r3pANXuDsG4-nZU-105" value="" style="html=1;shadow=0;dashed=0;align=center;verticalAlign=middle;shape=mxgraph.arrows2.arrow;dy=0.64;dx=16.29;notch=0;" parent="1" vertex="1">
          <mxGeometry x="426.5" y="347" width="30" height="10" as="geometry" />
        </mxCell>
        <mxCell id="jSd13r3pANXuDsG4-nZU-95" value="" style="rounded=0;whiteSpace=wrap;html=1;strokeWidth=2;fillColor=#F6E5DB;rotation=90;" parent="1" vertex="1">
          <mxGeometry x="442" y="324" width="120" height="60" as="geometry" />
        </mxCell>
        <mxCell id="jSd13r3pANXuDsG4-nZU-104" value="&lt;font style=&quot;font-size: 16px&quot;&gt;L&lt;/font&gt;&lt;font style=&quot;font-size: 16px&quot;&gt;&lt;font style=&quot;font-size: 16px&quot;&gt;×&lt;/font&gt;(HW)&lt;/font&gt;" style="text;html=1;strokeColor=none;fillColor=none;align=center;verticalAlign=middle;whiteSpace=wrap;rounded=0;shadow=0;glass=0;sketch=0;fillStyle=cross-hatch;opacity=30;rotation=0;" parent="1" vertex="1">
          <mxGeometry x="467" y="339" width="70" height="30" as="geometry" />
        </mxCell>
        <mxCell id="jSd13r3pANXuDsG4-nZU-77" value="&lt;font style=&quot;font-size: 16px&quot;&gt;L×&lt;/font&gt;&lt;font style=&quot;font-size: 16px&quot;&gt;K&lt;sup&gt;&#39;&lt;/sup&gt;&lt;/font&gt;" style="text;html=1;strokeColor=none;fillColor=none;align=center;verticalAlign=middle;whiteSpace=wrap;rounded=0;shadow=0;glass=0;sketch=0;fillStyle=cross-hatch;opacity=30;rotation=0;" parent="1" vertex="1">
          <mxGeometry x="201" y="337" width="70" height="30" as="geometry" />
        </mxCell>
        <mxCell id="jSd13r3pANXuDsG4-nZU-40" value="&lt;font style=&quot;font-size: 16px&quot;&gt;(HW)&lt;/font&gt;&lt;font style=&quot;font-size: 16px&quot;&gt;×L&lt;/font&gt;" style="text;html=1;strokeColor=none;fillColor=none;align=center;verticalAlign=middle;whiteSpace=wrap;rounded=0;shadow=0;glass=0;sketch=0;fillStyle=cross-hatch;opacity=30;" parent="1" vertex="1">
          <mxGeometry x="359" y="160" width="70" height="30" as="geometry" />
        </mxCell>
        <mxCell id="jSd13r3pANXuDsG4-nZU-56" value="" style="endArrow=none;html=1;rounded=0;entryX=1;entryY=0.25;entryDx=0;entryDy=0;exitX=0;exitY=0.25;exitDx=0;exitDy=0;strokeColor=#d5dce2;opacity=30;" parent="1" edge="1">
          <mxGeometry width="50" height="50" relative="1" as="geometry">
            <mxPoint x="518" y="167" as="sourcePoint" />
            <mxPoint x="634" y="167" as="targetPoint" />
          </mxGeometry>
        </mxCell>
        <mxCell id="jSd13r3pANXuDsG4-nZU-58" value="" style="endArrow=none;html=1;rounded=0;strokeColor=#d5dce2;exitX=0.25;exitY=0;exitDx=0;exitDy=0;entryX=0.25;entryY=1;entryDx=0;entryDy=0;opacity=30;" parent="1" edge="1">
          <mxGeometry width="50" height="50" relative="1" as="geometry">
            <mxPoint x="547" y="157" as="sourcePoint" />
            <mxPoint x="547" y="197" as="targetPoint" />
          </mxGeometry>
        </mxCell>
        <mxCell id="jSd13r3pANXuDsG4-nZU-63" value="&lt;font style=&quot;font-size: 16px&quot;&gt;K&lt;sup&gt;&#39;&lt;/sup&gt;×L&lt;/font&gt;" style="text;html=1;strokeColor=none;fillColor=none;align=center;verticalAlign=middle;whiteSpace=wrap;rounded=0;shadow=0;glass=0;sketch=0;fillStyle=cross-hatch;opacity=30;" parent="1" vertex="1">
          <mxGeometry x="541" y="160" width="70" height="30" as="geometry" />
        </mxCell>
        <mxCell id="H8M6aFFdjHr4lKEAm0NU-12" value="" style="rounded=0;whiteSpace=wrap;html=1;shadow=0;glass=0;dashed=1;sketch=0;fillStyle=cross-hatch;fontFamily=Helvetica;fontSize=16;strokeColor=none;strokeWidth=3;fillColor=#FF8000;gradientColor=none;opacity=10;" vertex="1" parent="1">
          <mxGeometry x="322" y="487" width="120" height="23" as="geometry" />
        </mxCell>
        <mxCell id="H8M6aFFdjHr4lKEAm0NU-14" value="&lt;font color=&quot;#dcd9d8&quot;&gt;Appearance Transfer Bottleneck(2→1）&lt;/font&gt;" style="text;html=1;strokeColor=none;fillColor=none;align=center;verticalAlign=middle;whiteSpace=wrap;rounded=0;shadow=0;glass=0;dashed=1;sketch=0;fillStyle=cross-hatch;fontFamily=Helvetica;fontSize=16;opacity=10;" vertex="1" parent="1">
          <mxGeometry x="235" y="511" width="320" height="30" as="geometry" />
        </mxCell>
        <mxCell id="H8M6aFFdjHr4lKEAm0NU-16" value="Appearance Transfer Bottleneck(1→2）" style="text;html=1;strokeColor=none;fillColor=none;align=center;verticalAlign=middle;whiteSpace=wrap;rounded=0;shadow=0;glass=0;dashed=1;sketch=0;fillStyle=cross-hatch;fontFamily=Helvetica;fontSize=16;opacity=10;" vertex="1" parent="1">
          <mxGeometry x="233.75" y="455" width="320" height="30" as="geometry" />
        </mxCell>
      </root>
    </mxGraphModel>
  </diagram>
</mxfile>
